<svg xmlns="http://www.w3.org/2000/svg" xmlns:xlink="http://www.w3.org/1999/xlink" width="500" zoomAndPan="magnify" viewBox="0 0 375 374.999991" height="500" preserveAspectRatio="xMidYMid meet" version="1.0"><defs><g/></defs><g fill="#ff0000" fill-opacity="1"><g transform="translate(10.05213, 262.551155)"><g><path d="M 107.65625 -157.484375 C 108.101562 -157.484375 108.585938 -157.367188 109.109375 -157.140625 C 109.628906 -156.921875 109.960938 -156.738281 110.109375 -156.59375 C 121.078125 -131.238281 131.160156 -105.617188 140.359375 -79.734375 C 149.554688 -53.859375 159.492188 -28.316406 170.171875 -3.109375 C 169.421875 -1.628906 168.453125 -1 167.265625 -1.21875 C 166.085938 -1.445312 164.976562 -1.410156 163.9375 -1.109375 C 160.675781 -0.515625 157.453125 -0.328125 154.265625 -0.546875 C 151.078125 -0.773438 147.847656 -0.738281 144.578125 -0.4375 C 134.347656 0.144531 124.117188 0.363281 113.890625 0.21875 C 113.148438 0.0703125 112.332031 0.179688 111.4375 0.546875 C 110.550781 0.921875 109.585938 0.882812 108.546875 0.4375 C 106.921875 -4.601562 105.101562 -9.601562 103.09375 -14.5625 C 101.09375 -19.53125 99.203125 -24.535156 97.421875 -29.578125 C 87.785156 -30.472656 78.1875 -30.585938 68.625 -29.921875 C 59.0625 -29.253906 49.457031 -29.21875 39.8125 -29.8125 C 38.78125 -26.988281 37.742188 -24.28125 36.703125 -21.6875 C 35.660156 -19.09375 34.546875 -16.535156 33.359375 -14.015625 C 32.328125 -11.640625 31.4375 -9.226562 30.6875 -6.78125 C 29.945312 -4.332031 28.984375 -2.21875 27.796875 -0.4375 C 23.941406 -0.59375 20.269531 -0.59375 16.78125 -0.4375 C 13.300781 -0.289062 9.859375 -0.144531 6.453125 0 C 6.003906 -0.738281 5.707031 -1.515625 5.5625 -2.328125 C 5.414062 -3.148438 5.5625 -4.15625 6 -5.34375 C 7.1875 -8.15625 8.410156 -10.929688 9.671875 -13.671875 C 10.929688 -16.421875 12.007812 -19.203125 12.90625 -22.015625 C 13.9375 -24.984375 15.007812 -28.023438 16.125 -31.140625 C 17.238281 -34.253906 18.535156 -37.21875 20.015625 -40.03125 C 21.054688 -42.113281 21.910156 -44.191406 22.578125 -46.265625 C 23.242188 -48.335938 24.019531 -50.414062 24.90625 -52.5 C 26.6875 -56.800781 28.46875 -61.0625 30.25 -65.28125 C 32.03125 -69.507812 33.882812 -73.703125 35.8125 -77.859375 C 36.695312 -79.785156 37.4375 -81.820312 38.03125 -83.96875 C 38.625 -86.125 39.367188 -88.164062 40.265625 -90.09375 C 41.453125 -93.050781 42.453125 -96.160156 43.265625 -99.421875 C 44.078125 -102.691406 45.226562 -105.734375 46.71875 -108.546875 C 48.789062 -112.554688 50.492188 -116.671875 51.828125 -120.890625 C 53.160156 -125.117188 54.71875 -129.3125 56.5 -133.46875 C 58.132812 -137.320312 59.617188 -141.210938 60.953125 -145.140625 C 62.285156 -149.066406 63.84375 -153.035156 65.625 -157.046875 C 66.8125 -157.191406 67.992188 -157.335938 69.171875 -157.484375 C 70.359375 -157.628906 71.546875 -157.628906 72.734375 -157.484375 C 75.554688 -157.191406 78.300781 -157.046875 80.96875 -157.046875 C 83.632812 -157.046875 86.378906 -157.046875 89.203125 -157.046875 C 92.160156 -157.046875 95.195312 -157.117188 98.3125 -157.265625 C 101.425781 -157.410156 104.539062 -157.484375 107.65625 -157.484375 Z M 84.96875 -147.46875 C 83.1875 -143.613281 81.441406 -139.722656 79.734375 -135.796875 C 78.035156 -131.867188 76.59375 -127.828125 75.40625 -123.671875 C 75.695312 -123.078125 75.953125 -122.554688 76.171875 -122.109375 C 76.398438 -121.671875 76.585938 -121.15625 76.734375 -120.5625 C 77.921875 -117.300781 79.109375 -113.960938 80.296875 -110.546875 C 81.484375 -107.140625 82.597656 -103.726562 83.640625 -100.3125 C 84.234375 -98.6875 84.972656 -97.128906 85.859375 -95.640625 C 86.753906 -94.160156 87.421875 -92.609375 87.859375 -90.984375 C 88.597656 -87.710938 89.597656 -84.519531 90.859375 -81.40625 C 92.117188 -78.289062 93.269531 -75.175781 94.3125 -72.0625 C 95.945312 -67.914062 97.351562 -63.726562 98.53125 -59.5 C 99.71875 -55.269531 101.128906 -51.007812 102.765625 -46.71875 C 104.398438 -42.5625 105.992188 -38.257812 107.546875 -33.8125 C 109.109375 -29.363281 110.703125 -24.988281 112.328125 -20.6875 C 113.066406 -18.757812 113.804688 -16.867188 114.546875 -15.015625 C 115.296875 -13.160156 115.96875 -11.34375 116.5625 -9.5625 C 120.113281 -9.414062 123.628906 -9.5625 127.109375 -10 C 130.597656 -10.445312 134.125 -10.523438 137.6875 -10.234375 C 136.5 -13.347656 135.3125 -16.421875 134.125 -19.453125 C 132.9375 -22.492188 131.675781 -25.5 130.34375 -28.46875 C 129.3125 -30.394531 128.421875 -32.394531 127.671875 -34.46875 C 126.929688 -36.550781 126.117188 -38.554688 125.234375 -40.484375 C 124.335938 -42.703125 123.332031 -44.925781 122.21875 -47.15625 C 121.113281 -49.382812 120.113281 -51.679688 119.21875 -54.046875 C 117.59375 -58.347656 115.925781 -62.648438 114.21875 -66.953125 C 112.507812 -71.253906 110.769531 -75.554688 109 -79.859375 C 108.40625 -81.640625 107.8125 -83.453125 107.21875 -85.296875 C 106.625 -87.148438 105.957031 -88.820312 105.21875 -90.3125 C 101.800781 -97.570312 99.128906 -104.835938 97.203125 -112.109375 C 96.160156 -115.960938 94.863281 -119.742188 93.3125 -123.453125 C 91.757812 -127.160156 90.535156 -131.015625 89.640625 -135.015625 C 89.046875 -137.097656 88.226562 -139.140625 87.1875 -141.140625 C 86.15625 -143.140625 85.414062 -145.25 84.96875 -147.46875 Z M 69.84375 -107.4375 C 65.539062 -98.394531 61.832031 -89.125 58.71875 -79.625 C 55.601562 -70.132812 52.117188 -60.796875 48.265625 -51.609375 C 55.085938 -51.160156 61.910156 -51.082031 68.734375 -51.375 C 75.554688 -51.675781 82.453125 -51.898438 89.421875 -52.046875 C 86.003906 -61.242188 82.738281 -70.515625 79.625 -79.859375 C 76.519531 -89.203125 73.257812 -98.394531 69.84375 -107.4375 Z M 69.84375 -107.4375 "/></g></g></g><g fill="#ff0000" fill-opacity="1"><g transform="translate(141.732972, 262.551155)"><g><path d="M 111.4375 -117.890625 C 112.175781 -115.515625 112.546875 -113.363281 112.546875 -111.4375 C 112.546875 -109.507812 112.625 -107.507812 112.78125 -105.4375 C 113.070312 -101.28125 113.070312 -97.128906 112.78125 -92.984375 C 112.78125 -91.054688 112.890625 -89.085938 113.109375 -87.078125 C 113.328125 -85.078125 113.066406 -83.1875 112.328125 -81.40625 C 111.140625 -80.375 109.953125 -80.375 108.765625 -81.40625 C 105.648438 -83.78125 101.867188 -85.191406 97.421875 -85.640625 C 92.378906 -86.085938 87.78125 -85.972656 83.625 -85.296875 C 79.476562 -84.628906 75.179688 -82.367188 70.734375 -78.515625 C 70.140625 -77.921875 69.472656 -77.328125 68.734375 -76.734375 C 67.992188 -76.140625 67.398438 -75.472656 66.953125 -74.734375 C 66.804688 -65.242188 66.84375 -56.160156 67.0625 -47.484375 C 67.289062 -38.816406 67.253906 -29.734375 66.953125 -20.234375 C 66.804688 -18.460938 66.769531 -16.648438 66.84375 -14.796875 C 66.914062 -12.941406 67.023438 -11.125 67.171875 -9.34375 L 67.171875 -5.78125 C 67.023438 -3.707031 66.582031 -2.335938 65.84375 -1.671875 C 65.101562 -1.003906 63.691406 -0.671875 61.609375 -0.671875 C 57.609375 -0.515625 53.601562 -0.507812 49.59375 -0.65625 C 45.59375 -0.8125 41.59375 -0.664062 37.59375 -0.21875 C 34.769531 -0.0703125 31.910156 0.0351562 29.015625 0.109375 C 26.128906 0.179688 23.203125 0.289062 20.234375 0.4375 C 19.648438 0.59375 18.984375 0.628906 18.234375 0.546875 C 17.492188 0.472656 16.679688 0.0664062 15.796875 -0.671875 C 16.085938 -19.347656 15.972656 -38.289062 15.453125 -57.5 C 14.941406 -76.707031 14.238281 -95.945312 13.34375 -115.21875 C 15.414062 -115.519531 18.601562 -115.742188 22.90625 -115.890625 C 27.207031 -116.035156 31.691406 -116.144531 36.359375 -116.21875 C 41.035156 -116.289062 44.96875 -116.289062 48.15625 -116.21875 C 51.34375 -116.144531 52.9375 -115.960938 52.9375 -115.671875 C 55.164062 -113.585938 56.945312 -111.023438 58.28125 -107.984375 C 59.613281 -104.953125 61.242188 -102.175781 63.171875 -99.65625 C 70.441406 -106.625 77.707031 -111.664062 84.96875 -114.78125 C 92.238281 -117.894531 101.0625 -118.929688 111.4375 -117.890625 Z M 23.359375 -104.984375 C 23.210938 -100.242188 22.988281 -95.570312 22.6875 -90.96875 C 22.394531 -86.375 22.46875 -81.78125 22.90625 -77.1875 C 23.207031 -73.332031 23.503906 -69.4375 23.796875 -65.5 C 24.097656 -61.570312 24.097656 -57.679688 23.796875 -53.828125 C 23.648438 -48.640625 23.648438 -43.375 23.796875 -38.03125 C 23.941406 -32.695312 24.015625 -27.359375 24.015625 -22.015625 C 24.171875 -19.941406 24.320312 -17.863281 24.46875 -15.78125 C 24.613281 -13.707031 24.984375 -11.632812 25.578125 -9.5625 C 28.242188 -9.269531 31.242188 -9.304688 34.578125 -9.671875 C 37.921875 -10.046875 40.78125 -10.601562 43.15625 -11.34375 L 41.8125 -104.765625 C 38.550781 -105.503906 35.398438 -105.765625 32.359375 -105.546875 C 29.316406 -105.328125 26.316406 -105.140625 23.359375 -104.984375 Z M 23.359375 -104.984375 "/></g></g></g><g fill="#ff0000" fill-opacity="1"><g transform="translate(218.917426, 262.551155)"><g><path d="M 141.6875 -118.34375 C 143.019531 -118.1875 144.503906 -118.035156 146.140625 -117.890625 C 147.773438 -117.742188 149.257812 -117.222656 150.59375 -116.328125 L 150.59375 -99.875 C 150.445312 -99.425781 150.375 -98.867188 150.375 -98.203125 C 150.375 -97.535156 150.222656 -96.976562 149.921875 -96.53125 C 149.773438 -96.382812 149.441406 -96.3125 148.921875 -96.3125 C 148.398438 -96.3125 148.066406 -96.3125 147.921875 -96.3125 C 144.660156 -97.050781 141.769531 -96.382812 139.25 -94.3125 C 136.726562 -92.238281 135.019531 -89.941406 134.125 -87.421875 C 131.757812 -81.484375 129.351562 -75.210938 126.90625 -68.609375 C 124.457031 -62.015625 121.972656 -55.679688 119.453125 -49.609375 C 117.523438 -44.566406 115.519531 -39.597656 113.4375 -34.703125 C 111.363281 -29.804688 109.289062 -24.835938 107.21875 -19.796875 C 106.175781 -17.273438 105.171875 -14.789062 104.203125 -12.34375 C 103.242188 -9.894531 102.320312 -7.335938 101.4375 -4.671875 C 100.6875 -3.035156 99.644531 -1.40625 98.3125 0.21875 C 95.945312 0.664062 93.503906 0.851562 90.984375 0.78125 C 88.460938 0.707031 85.9375 0.671875 83.40625 0.671875 C 80.738281 0.671875 78.070312 0.742188 75.40625 0.890625 C 72.738281 1.035156 70.144531 1.035156 67.625 0.890625 C 66.132812 0.742188 64.570312 0.707031 62.9375 0.78125 C 61.3125 0.851562 59.832031 0.445312 58.5 -0.4375 C 55.238281 -7.113281 51.9375 -13.640625 48.59375 -20.015625 C 45.257812 -26.390625 41.960938 -32.914062 38.703125 -39.59375 C 33.804688 -50.269531 28.984375 -60.945312 24.234375 -71.625 C 19.492188 -82.300781 14.378906 -92.832031 8.890625 -103.21875 L 5.78125 -109.65625 C 5.332031 -110.40625 4.957031 -111.367188 4.65625 -112.546875 C 4.363281 -113.734375 4.296875 -114.847656 4.453125 -115.890625 C 4.890625 -116.179688 6.960938 -116.398438 10.671875 -116.546875 C 14.378906 -116.703125 18.863281 -116.816406 24.125 -116.890625 C 29.394531 -116.960938 34.660156 -117.035156 39.921875 -117.109375 C 45.191406 -117.179688 49.71875 -117.179688 53.5 -117.109375 C 57.28125 -117.035156 59.46875 -116.925781 60.0625 -116.78125 C 66.132812 -104.914062 71.503906 -92.789062 76.171875 -80.40625 C 80.847656 -68.03125 86.375 -55.757812 92.75 -43.59375 L 98.984375 -58.28125 C 101.503906 -64.507812 104.0625 -70.695312 106.65625 -76.84375 C 109.25 -83 111.804688 -89.191406 114.328125 -95.421875 C 115.222656 -97.503906 116.222656 -99.804688 117.328125 -102.328125 C 118.441406 -104.847656 119.664062 -107.070312 121 -109 C 123.519531 -112.851562 126.5625 -115.445312 130.125 -116.78125 C 133.6875 -118.113281 137.539062 -118.632812 141.6875 -118.34375 Z M 17.578125 -107.4375 C 19.347656 -103.132812 21.160156 -99.09375 23.015625 -95.3125 C 24.867188 -91.53125 26.6875 -87.785156 28.46875 -84.078125 C 31.882812 -77.703125 35.070312 -71.101562 38.03125 -64.28125 C 41 -57.457031 44.039062 -50.710938 47.15625 -44.046875 C 49.820312 -38.554688 52.414062 -33.4375 54.9375 -28.6875 C 57.457031 -23.945312 59.976562 -18.832031 62.5 -13.34375 C 62.945312 -12.601562 63.429688 -11.820312 63.953125 -11 C 64.472656 -10.1875 65.101562 -9.5625 65.84375 -9.125 C 67.769531 -8.96875 69.660156 -8.925781 71.515625 -9 C 73.367188 -9.082031 75.257812 -9.125 77.1875 -9.125 C 78.070312 -8.96875 79.144531 -8.890625 80.40625 -8.890625 C 81.664062 -8.890625 82.375 -9.410156 82.53125 -10.453125 C 78.226562 -20.679688 73.441406 -31.320312 68.171875 -42.375 C 62.910156 -53.425781 57.679688 -64.472656 52.484375 -75.515625 C 47.296875 -86.566406 42.40625 -97.0625 37.8125 -107 C 34.25 -107.582031 30.910156 -107.910156 27.796875 -107.984375 C 24.691406 -108.066406 21.285156 -107.882812 17.578125 -107.4375 Z M 17.578125 -107.4375 "/></g></g></g><g fill="#00ffff" fill-opacity="1"><g transform="translate(1.710803, 262.551155)"><g><path d="M 107.65625 -157.484375 C 108.101562 -157.484375 108.585938 -157.367188 109.109375 -157.140625 C 109.628906 -156.921875 109.960938 -156.738281 110.109375 -156.59375 C 121.078125 -131.238281 131.160156 -105.617188 140.359375 -79.734375 C 149.554688 -53.859375 159.492188 -28.316406 170.171875 -3.109375 C 169.421875 -1.628906 168.453125 -1 167.265625 -1.21875 C 166.085938 -1.445312 164.976562 -1.410156 163.9375 -1.109375 C 160.675781 -0.515625 157.453125 -0.328125 154.265625 -0.546875 C 151.078125 -0.773438 147.847656 -0.738281 144.578125 -0.4375 C 134.347656 0.144531 124.117188 0.363281 113.890625 0.21875 C 113.148438 0.0703125 112.332031 0.179688 111.4375 0.546875 C 110.550781 0.921875 109.585938 0.882812 108.546875 0.4375 C 106.921875 -4.601562 105.101562 -9.601562 103.09375 -14.5625 C 101.09375 -19.53125 99.203125 -24.535156 97.421875 -29.578125 C 87.785156 -30.472656 78.1875 -30.585938 68.625 -29.921875 C 59.0625 -29.253906 49.457031 -29.21875 39.8125 -29.8125 C 38.78125 -26.988281 37.742188 -24.28125 36.703125 -21.6875 C 35.660156 -19.09375 34.546875 -16.535156 33.359375 -14.015625 C 32.328125 -11.640625 31.4375 -9.226562 30.6875 -6.78125 C 29.945312 -4.332031 28.984375 -2.21875 27.796875 -0.4375 C 23.941406 -0.59375 20.269531 -0.59375 16.78125 -0.4375 C 13.300781 -0.289062 9.859375 -0.144531 6.453125 0 C 6.003906 -0.738281 5.707031 -1.515625 5.5625 -2.328125 C 5.414062 -3.148438 5.5625 -4.15625 6 -5.34375 C 7.1875 -8.15625 8.410156 -10.929688 9.671875 -13.671875 C 10.929688 -16.421875 12.007812 -19.203125 12.90625 -22.015625 C 13.9375 -24.984375 15.007812 -28.023438 16.125 -31.140625 C 17.238281 -34.253906 18.535156 -37.21875 20.015625 -40.03125 C 21.054688 -42.113281 21.910156 -44.191406 22.578125 -46.265625 C 23.242188 -48.335938 24.019531 -50.414062 24.90625 -52.5 C 26.6875 -56.800781 28.46875 -61.0625 30.25 -65.28125 C 32.03125 -69.507812 33.882812 -73.703125 35.8125 -77.859375 C 36.695312 -79.785156 37.4375 -81.820312 38.03125 -83.96875 C 38.625 -86.125 39.367188 -88.164062 40.265625 -90.09375 C 41.453125 -93.050781 42.453125 -96.160156 43.265625 -99.421875 C 44.078125 -102.691406 45.226562 -105.734375 46.71875 -108.546875 C 48.789062 -112.554688 50.492188 -116.671875 51.828125 -120.890625 C 53.160156 -125.117188 54.71875 -129.3125 56.5 -133.46875 C 58.132812 -137.320312 59.617188 -141.210938 60.953125 -145.140625 C 62.285156 -149.066406 63.84375 -153.035156 65.625 -157.046875 C 66.8125 -157.191406 67.992188 -157.335938 69.171875 -157.484375 C 70.359375 -157.628906 71.546875 -157.628906 72.734375 -157.484375 C 75.554688 -157.191406 78.300781 -157.046875 80.96875 -157.046875 C 83.632812 -157.046875 86.378906 -157.046875 89.203125 -157.046875 C 92.160156 -157.046875 95.195312 -157.117188 98.3125 -157.265625 C 101.425781 -157.410156 104.539062 -157.484375 107.65625 -157.484375 Z M 84.96875 -147.46875 C 83.1875 -143.613281 81.441406 -139.722656 79.734375 -135.796875 C 78.035156 -131.867188 76.59375 -127.828125 75.40625 -123.671875 C 75.695312 -123.078125 75.953125 -122.554688 76.171875 -122.109375 C 76.398438 -121.671875 76.585938 -121.15625 76.734375 -120.5625 C 77.921875 -117.300781 79.109375 -113.960938 80.296875 -110.546875 C 81.484375 -107.140625 82.597656 -103.726562 83.640625 -100.3125 C 84.234375 -98.6875 84.972656 -97.128906 85.859375 -95.640625 C 86.753906 -94.160156 87.421875 -92.609375 87.859375 -90.984375 C 88.597656 -87.710938 89.597656 -84.519531 90.859375 -81.40625 C 92.117188 -78.289062 93.269531 -75.175781 94.3125 -72.0625 C 95.945312 -67.914062 97.351562 -63.726562 98.53125 -59.5 C 99.71875 -55.269531 101.128906 -51.007812 102.765625 -46.71875 C 104.398438 -42.5625 105.992188 -38.257812 107.546875 -33.8125 C 109.109375 -29.363281 110.703125 -24.988281 112.328125 -20.6875 C 113.066406 -18.757812 113.804688 -16.867188 114.546875 -15.015625 C 115.296875 -13.160156 115.96875 -11.34375 116.5625 -9.5625 C 120.113281 -9.414062 123.628906 -9.5625 127.109375 -10 C 130.597656 -10.445312 134.125 -10.523438 137.6875 -10.234375 C 136.5 -13.347656 135.3125 -16.421875 134.125 -19.453125 C 132.9375 -22.492188 131.675781 -25.5 130.34375 -28.46875 C 129.3125 -30.394531 128.421875 -32.394531 127.671875 -34.46875 C 126.929688 -36.550781 126.117188 -38.554688 125.234375 -40.484375 C 124.335938 -42.703125 123.332031 -44.925781 122.21875 -47.15625 C 121.113281 -49.382812 120.113281 -51.679688 119.21875 -54.046875 C 117.59375 -58.347656 115.925781 -62.648438 114.21875 -66.953125 C 112.507812 -71.253906 110.769531 -75.554688 109 -79.859375 C 108.40625 -81.640625 107.8125 -83.453125 107.21875 -85.296875 C 106.625 -87.148438 105.957031 -88.820312 105.21875 -90.3125 C 101.800781 -97.570312 99.128906 -104.835938 97.203125 -112.109375 C 96.160156 -115.960938 94.863281 -119.742188 93.3125 -123.453125 C 91.757812 -127.160156 90.535156 -131.015625 89.640625 -135.015625 C 89.046875 -137.097656 88.226562 -139.140625 87.1875 -141.140625 C 86.15625 -143.140625 85.414062 -145.25 84.96875 -147.46875 Z M 69.84375 -107.4375 C 65.539062 -98.394531 61.832031 -89.125 58.71875 -79.625 C 55.601562 -70.132812 52.117188 -60.796875 48.265625 -51.609375 C 55.085938 -51.160156 61.910156 -51.082031 68.734375 -51.375 C 75.554688 -51.675781 82.453125 -51.898438 89.421875 -52.046875 C 86.003906 -61.242188 82.738281 -70.515625 79.625 -79.859375 C 76.519531 -89.203125 73.257812 -98.394531 69.84375 -107.4375 Z M 69.84375 -107.4375 "/></g></g></g><g fill="#00ffff" fill-opacity="1"><g transform="translate(133.391646, 262.551155)"><g><path d="M 111.4375 -117.890625 C 112.175781 -115.515625 112.546875 -113.363281 112.546875 -111.4375 C 112.546875 -109.507812 112.625 -107.507812 112.78125 -105.4375 C 113.070312 -101.28125 113.070312 -97.128906 112.78125 -92.984375 C 112.78125 -91.054688 112.890625 -89.085938 113.109375 -87.078125 C 113.328125 -85.078125 113.066406 -83.1875 112.328125 -81.40625 C 111.140625 -80.375 109.953125 -80.375 108.765625 -81.40625 C 105.648438 -83.78125 101.867188 -85.191406 97.421875 -85.640625 C 92.378906 -86.085938 87.78125 -85.972656 83.625 -85.296875 C 79.476562 -84.628906 75.179688 -82.367188 70.734375 -78.515625 C 70.140625 -77.921875 69.472656 -77.328125 68.734375 -76.734375 C 67.992188 -76.140625 67.398438 -75.472656 66.953125 -74.734375 C 66.804688 -65.242188 66.84375 -56.160156 67.0625 -47.484375 C 67.289062 -38.816406 67.253906 -29.734375 66.953125 -20.234375 C 66.804688 -18.460938 66.769531 -16.648438 66.84375 -14.796875 C 66.914062 -12.941406 67.023438 -11.125 67.171875 -9.34375 L 67.171875 -5.78125 C 67.023438 -3.707031 66.582031 -2.335938 65.84375 -1.671875 C 65.101562 -1.003906 63.691406 -0.671875 61.609375 -0.671875 C 57.609375 -0.515625 53.601562 -0.507812 49.59375 -0.65625 C 45.59375 -0.8125 41.59375 -0.664062 37.59375 -0.21875 C 34.769531 -0.0703125 31.910156 0.0351562 29.015625 0.109375 C 26.128906 0.179688 23.203125 0.289062 20.234375 0.4375 C 19.648438 0.59375 18.984375 0.628906 18.234375 0.546875 C 17.492188 0.472656 16.679688 0.0664062 15.796875 -0.671875 C 16.085938 -19.347656 15.972656 -38.289062 15.453125 -57.5 C 14.941406 -76.707031 14.238281 -95.945312 13.34375 -115.21875 C 15.414062 -115.519531 18.601562 -115.742188 22.90625 -115.890625 C 27.207031 -116.035156 31.691406 -116.144531 36.359375 -116.21875 C 41.035156 -116.289062 44.96875 -116.289062 48.15625 -116.21875 C 51.34375 -116.144531 52.9375 -115.960938 52.9375 -115.671875 C 55.164062 -113.585938 56.945312 -111.023438 58.28125 -107.984375 C 59.613281 -104.953125 61.242188 -102.175781 63.171875 -99.65625 C 70.441406 -106.625 77.707031 -111.664062 84.96875 -114.78125 C 92.238281 -117.894531 101.0625 -118.929688 111.4375 -117.890625 Z M 23.359375 -104.984375 C 23.210938 -100.242188 22.988281 -95.570312 22.6875 -90.96875 C 22.394531 -86.375 22.46875 -81.78125 22.90625 -77.1875 C 23.207031 -73.332031 23.503906 -69.4375 23.796875 -65.5 C 24.097656 -61.570312 24.097656 -57.679688 23.796875 -53.828125 C 23.648438 -48.640625 23.648438 -43.375 23.796875 -38.03125 C 23.941406 -32.695312 24.015625 -27.359375 24.015625 -22.015625 C 24.171875 -19.941406 24.320312 -17.863281 24.46875 -15.78125 C 24.613281 -13.707031 24.984375 -11.632812 25.578125 -9.5625 C 28.242188 -9.269531 31.242188 -9.304688 34.578125 -9.671875 C 37.921875 -10.046875 40.78125 -10.601562 43.15625 -11.34375 L 41.8125 -104.765625 C 38.550781 -105.503906 35.398438 -105.765625 32.359375 -105.546875 C 29.316406 -105.328125 26.316406 -105.140625 23.359375 -104.984375 Z M 23.359375 -104.984375 "/></g></g></g><g fill="#00ffff" fill-opacity="1"><g transform="translate(210.576099, 262.551155)"><g><path d="M 141.6875 -118.34375 C 143.019531 -118.1875 144.503906 -118.035156 146.140625 -117.890625 C 147.773438 -117.742188 149.257812 -117.222656 150.59375 -116.328125 L 150.59375 -99.875 C 150.445312 -99.425781 150.375 -98.867188 150.375 -98.203125 C 150.375 -97.535156 150.222656 -96.976562 149.921875 -96.53125 C 149.773438 -96.382812 149.441406 -96.3125 148.921875 -96.3125 C 148.398438 -96.3125 148.066406 -96.3125 147.921875 -96.3125 C 144.660156 -97.050781 141.769531 -96.382812 139.25 -94.3125 C 136.726562 -92.238281 135.019531 -89.941406 134.125 -87.421875 C 131.757812 -81.484375 129.351562 -75.210938 126.90625 -68.609375 C 124.457031 -62.015625 121.972656 -55.679688 119.453125 -49.609375 C 117.523438 -44.566406 115.519531 -39.597656 113.4375 -34.703125 C 111.363281 -29.804688 109.289062 -24.835938 107.21875 -19.796875 C 106.175781 -17.273438 105.171875 -14.789062 104.203125 -12.34375 C 103.242188 -9.894531 102.320312 -7.335938 101.4375 -4.671875 C 100.6875 -3.035156 99.644531 -1.40625 98.3125 0.21875 C 95.945312 0.664062 93.503906 0.851562 90.984375 0.78125 C 88.460938 0.707031 85.9375 0.671875 83.40625 0.671875 C 80.738281 0.671875 78.070312 0.742188 75.40625 0.890625 C 72.738281 1.035156 70.144531 1.035156 67.625 0.890625 C 66.132812 0.742188 64.570312 0.707031 62.9375 0.78125 C 61.3125 0.851562 59.832031 0.445312 58.5 -0.4375 C 55.238281 -7.113281 51.9375 -13.640625 48.59375 -20.015625 C 45.257812 -26.390625 41.960938 -32.914062 38.703125 -39.59375 C 33.804688 -50.269531 28.984375 -60.945312 24.234375 -71.625 C 19.492188 -82.300781 14.378906 -92.832031 8.890625 -103.21875 L 5.78125 -109.65625 C 5.332031 -110.40625 4.957031 -111.367188 4.65625 -112.546875 C 4.363281 -113.734375 4.296875 -114.847656 4.453125 -115.890625 C 4.890625 -116.179688 6.960938 -116.398438 10.671875 -116.546875 C 14.378906 -116.703125 18.863281 -116.816406 24.125 -116.890625 C 29.394531 -116.960938 34.660156 -117.035156 39.921875 -117.109375 C 45.191406 -117.179688 49.71875 -117.179688 53.5 -117.109375 C 57.28125 -117.035156 59.46875 -116.925781 60.0625 -116.78125 C 66.132812 -104.914062 71.503906 -92.789062 76.171875 -80.40625 C 80.847656 -68.03125 86.375 -55.757812 92.75 -43.59375 L 98.984375 -58.28125 C 101.503906 -64.507812 104.0625 -70.695312 106.65625 -76.84375 C 109.25 -83 111.804688 -89.191406 114.328125 -95.421875 C 115.222656 -97.503906 116.222656 -99.804688 117.328125 -102.328125 C 118.441406 -104.847656 119.664062 -107.070312 121 -109 C 123.519531 -112.851562 126.5625 -115.445312 130.125 -116.78125 C 133.6875 -118.113281 137.539062 -118.632812 141.6875 -118.34375 Z M 17.578125 -107.4375 C 19.347656 -103.132812 21.160156 -99.09375 23.015625 -95.3125 C 24.867188 -91.53125 26.6875 -87.785156 28.46875 -84.078125 C 31.882812 -77.703125 35.070312 -71.101562 38.03125 -64.28125 C 41 -57.457031 44.039062 -50.710938 47.15625 -44.046875 C 49.820312 -38.554688 52.414062 -33.4375 54.9375 -28.6875 C 57.457031 -23.945312 59.976562 -18.832031 62.5 -13.34375 C 62.945312 -12.601562 63.429688 -11.820312 63.953125 -11 C 64.472656 -10.1875 65.101562 -9.5625 65.84375 -9.125 C 67.769531 -8.96875 69.660156 -8.925781 71.515625 -9 C 73.367188 -9.082031 75.257812 -9.125 77.1875 -9.125 C 78.070312 -8.96875 79.144531 -8.890625 80.40625 -8.890625 C 81.664062 -8.890625 82.375 -9.410156 82.53125 -10.453125 C 78.226562 -20.679688 73.441406 -31.320312 68.171875 -42.375 C 62.910156 -53.425781 57.679688 -64.472656 52.484375 -75.515625 C 47.296875 -86.566406 42.40625 -97.0625 37.8125 -107 C 34.25 -107.582031 30.910156 -107.910156 27.796875 -107.984375 C 24.691406 -108.066406 21.285156 -107.882812 17.578125 -107.4375 Z M 17.578125 -107.4375 "/></g></g></g><g fill="#000000" fill-opacity="1"><g transform="translate(5.881466, 262.551155)"><g><path d="M 107.65625 -157.484375 C 108.101562 -157.484375 108.585938 -157.367188 109.109375 -157.140625 C 109.628906 -156.921875 109.960938 -156.738281 110.109375 -156.59375 C 121.078125 -131.238281 131.160156 -105.617188 140.359375 -79.734375 C 149.554688 -53.859375 159.492188 -28.316406 170.171875 -3.109375 C 169.421875 -1.628906 168.453125 -1 167.265625 -1.21875 C 166.085938 -1.445312 164.976562 -1.410156 163.9375 -1.109375 C 160.675781 -0.515625 157.453125 -0.328125 154.265625 -0.546875 C 151.078125 -0.773438 147.847656 -0.738281 144.578125 -0.4375 C 134.347656 0.144531 124.117188 0.363281 113.890625 0.21875 C 113.148438 0.0703125 112.332031 0.179688 111.4375 0.546875 C 110.550781 0.921875 109.585938 0.882812 108.546875 0.4375 C 106.921875 -4.601562 105.101562 -9.601562 103.09375 -14.5625 C 101.09375 -19.53125 99.203125 -24.535156 97.421875 -29.578125 C 87.785156 -30.472656 78.1875 -30.585938 68.625 -29.921875 C 59.0625 -29.253906 49.457031 -29.21875 39.8125 -29.8125 C 38.78125 -26.988281 37.742188 -24.28125 36.703125 -21.6875 C 35.660156 -19.09375 34.546875 -16.535156 33.359375 -14.015625 C 32.328125 -11.640625 31.4375 -9.226562 30.6875 -6.78125 C 29.945312 -4.332031 28.984375 -2.21875 27.796875 -0.4375 C 23.941406 -0.59375 20.269531 -0.59375 16.78125 -0.4375 C 13.300781 -0.289062 9.859375 -0.144531 6.453125 0 C 6.003906 -0.738281 5.707031 -1.515625 5.5625 -2.328125 C 5.414062 -3.148438 5.5625 -4.15625 6 -5.34375 C 7.1875 -8.15625 8.410156 -10.929688 9.671875 -13.671875 C 10.929688 -16.421875 12.007812 -19.203125 12.90625 -22.015625 C 13.9375 -24.984375 15.007812 -28.023438 16.125 -31.140625 C 17.238281 -34.253906 18.535156 -37.21875 20.015625 -40.03125 C 21.054688 -42.113281 21.910156 -44.191406 22.578125 -46.265625 C 23.242188 -48.335938 24.019531 -50.414062 24.90625 -52.5 C 26.6875 -56.800781 28.46875 -61.0625 30.25 -65.28125 C 32.03125 -69.507812 33.882812 -73.703125 35.8125 -77.859375 C 36.695312 -79.785156 37.4375 -81.820312 38.03125 -83.96875 C 38.625 -86.125 39.367188 -88.164062 40.265625 -90.09375 C 41.453125 -93.050781 42.453125 -96.160156 43.265625 -99.421875 C 44.078125 -102.691406 45.226562 -105.734375 46.71875 -108.546875 C 48.789062 -112.554688 50.492188 -116.671875 51.828125 -120.890625 C 53.160156 -125.117188 54.71875 -129.3125 56.5 -133.46875 C 58.132812 -137.320312 59.617188 -141.210938 60.953125 -145.140625 C 62.285156 -149.066406 63.84375 -153.035156 65.625 -157.046875 C 66.8125 -157.191406 67.992188 -157.335938 69.171875 -157.484375 C 70.359375 -157.628906 71.546875 -157.628906 72.734375 -157.484375 C 75.554688 -157.191406 78.300781 -157.046875 80.96875 -157.046875 C 83.632812 -157.046875 86.378906 -157.046875 89.203125 -157.046875 C 92.160156 -157.046875 95.195312 -157.117188 98.3125 -157.265625 C 101.425781 -157.410156 104.539062 -157.484375 107.65625 -157.484375 Z M 84.96875 -147.46875 C 83.1875 -143.613281 81.441406 -139.722656 79.734375 -135.796875 C 78.035156 -131.867188 76.59375 -127.828125 75.40625 -123.671875 C 75.695312 -123.078125 75.953125 -122.554688 76.171875 -122.109375 C 76.398438 -121.671875 76.585938 -121.15625 76.734375 -120.5625 C 77.921875 -117.300781 79.109375 -113.960938 80.296875 -110.546875 C 81.484375 -107.140625 82.597656 -103.726562 83.640625 -100.3125 C 84.234375 -98.6875 84.972656 -97.128906 85.859375 -95.640625 C 86.753906 -94.160156 87.421875 -92.609375 87.859375 -90.984375 C 88.597656 -87.710938 89.597656 -84.519531 90.859375 -81.40625 C 92.117188 -78.289062 93.269531 -75.175781 94.3125 -72.0625 C 95.945312 -67.914062 97.351562 -63.726562 98.53125 -59.5 C 99.71875 -55.269531 101.128906 -51.007812 102.765625 -46.71875 C 104.398438 -42.5625 105.992188 -38.257812 107.546875 -33.8125 C 109.109375 -29.363281 110.703125 -24.988281 112.328125 -20.6875 C 113.066406 -18.757812 113.804688 -16.867188 114.546875 -15.015625 C 115.296875 -13.160156 115.96875 -11.34375 116.5625 -9.5625 C 120.113281 -9.414062 123.628906 -9.5625 127.109375 -10 C 130.597656 -10.445312 134.125 -10.523438 137.6875 -10.234375 C 136.5 -13.347656 135.3125 -16.421875 134.125 -19.453125 C 132.9375 -22.492188 131.675781 -25.5 130.34375 -28.46875 C 129.3125 -30.394531 128.421875 -32.394531 127.671875 -34.46875 C 126.929688 -36.550781 126.117188 -38.554688 125.234375 -40.484375 C 124.335938 -42.703125 123.332031 -44.925781 122.21875 -47.15625 C 121.113281 -49.382812 120.113281 -51.679688 119.21875 -54.046875 C 117.59375 -58.347656 115.925781 -62.648438 114.21875 -66.953125 C 112.507812 -71.253906 110.769531 -75.554688 109 -79.859375 C 108.40625 -81.640625 107.8125 -83.453125 107.21875 -85.296875 C 106.625 -87.148438 105.957031 -88.820312 105.21875 -90.3125 C 101.800781 -97.570312 99.128906 -104.835938 97.203125 -112.109375 C 96.160156 -115.960938 94.863281 -119.742188 93.3125 -123.453125 C 91.757812 -127.160156 90.535156 -131.015625 89.640625 -135.015625 C 89.046875 -137.097656 88.226562 -139.140625 87.1875 -141.140625 C 86.15625 -143.140625 85.414062 -145.25 84.96875 -147.46875 Z M 69.84375 -107.4375 C 65.539062 -98.394531 61.832031 -89.125 58.71875 -79.625 C 55.601562 -70.132812 52.117188 -60.796875 48.265625 -51.609375 C 55.085938 -51.160156 61.910156 -51.082031 68.734375 -51.375 C 75.554688 -51.675781 82.453125 -51.898438 89.421875 -52.046875 C 86.003906 -61.242188 82.738281 -70.515625 79.625 -79.859375 C 76.519531 -89.203125 73.257812 -98.394531 69.84375 -107.4375 Z M 69.84375 -107.4375 "/></g></g></g><g fill="#000000" fill-opacity="1"><g transform="translate(137.562309, 262.551155)"><g><path d="M 111.4375 -117.890625 C 112.175781 -115.515625 112.546875 -113.363281 112.546875 -111.4375 C 112.546875 -109.507812 112.625 -107.507812 112.78125 -105.4375 C 113.070312 -101.28125 113.070312 -97.128906 112.78125 -92.984375 C 112.78125 -91.054688 112.890625 -89.085938 113.109375 -87.078125 C 113.328125 -85.078125 113.066406 -83.1875 112.328125 -81.40625 C 111.140625 -80.375 109.953125 -80.375 108.765625 -81.40625 C 105.648438 -83.78125 101.867188 -85.191406 97.421875 -85.640625 C 92.378906 -86.085938 87.78125 -85.972656 83.625 -85.296875 C 79.476562 -84.628906 75.179688 -82.367188 70.734375 -78.515625 C 70.140625 -77.921875 69.472656 -77.328125 68.734375 -76.734375 C 67.992188 -76.140625 67.398438 -75.472656 66.953125 -74.734375 C 66.804688 -65.242188 66.84375 -56.160156 67.0625 -47.484375 C 67.289062 -38.816406 67.253906 -29.734375 66.953125 -20.234375 C 66.804688 -18.460938 66.769531 -16.648438 66.84375 -14.796875 C 66.914062 -12.941406 67.023438 -11.125 67.171875 -9.34375 L 67.171875 -5.78125 C 67.023438 -3.707031 66.582031 -2.335938 65.84375 -1.671875 C 65.101562 -1.003906 63.691406 -0.671875 61.609375 -0.671875 C 57.609375 -0.515625 53.601562 -0.507812 49.59375 -0.65625 C 45.59375 -0.8125 41.59375 -0.664062 37.59375 -0.21875 C 34.769531 -0.0703125 31.910156 0.0351562 29.015625 0.109375 C 26.128906 0.179688 23.203125 0.289062 20.234375 0.4375 C 19.648438 0.59375 18.984375 0.628906 18.234375 0.546875 C 17.492188 0.472656 16.679688 0.0664062 15.796875 -0.671875 C 16.085938 -19.347656 15.972656 -38.289062 15.453125 -57.5 C 14.941406 -76.707031 14.238281 -95.945312 13.34375 -115.21875 C 15.414062 -115.519531 18.601562 -115.742188 22.90625 -115.890625 C 27.207031 -116.035156 31.691406 -116.144531 36.359375 -116.21875 C 41.035156 -116.289062 44.96875 -116.289062 48.15625 -116.21875 C 51.34375 -116.144531 52.9375 -115.960938 52.9375 -115.671875 C 55.164062 -113.585938 56.945312 -111.023438 58.28125 -107.984375 C 59.613281 -104.953125 61.242188 -102.175781 63.171875 -99.65625 C 70.441406 -106.625 77.707031 -111.664062 84.96875 -114.78125 C 92.238281 -117.894531 101.0625 -118.929688 111.4375 -117.890625 Z M 23.359375 -104.984375 C 23.210938 -100.242188 22.988281 -95.570312 22.6875 -90.96875 C 22.394531 -86.375 22.46875 -81.78125 22.90625 -77.1875 C 23.207031 -73.332031 23.503906 -69.4375 23.796875 -65.5 C 24.097656 -61.570312 24.097656 -57.679688 23.796875 -53.828125 C 23.648438 -48.640625 23.648438 -43.375 23.796875 -38.03125 C 23.941406 -32.695312 24.015625 -27.359375 24.015625 -22.015625 C 24.171875 -19.941406 24.320312 -17.863281 24.46875 -15.78125 C 24.613281 -13.707031 24.984375 -11.632812 25.578125 -9.5625 C 28.242188 -9.269531 31.242188 -9.304688 34.578125 -9.671875 C 37.921875 -10.046875 40.78125 -10.601562 43.15625 -11.34375 L 41.8125 -104.765625 C 38.550781 -105.503906 35.398438 -105.765625 32.359375 -105.546875 C 29.316406 -105.328125 26.316406 -105.140625 23.359375 -104.984375 Z M 23.359375 -104.984375 "/></g></g></g><g fill="#000000" fill-opacity="1"><g transform="translate(214.746762, 262.551155)"><g><path d="M 141.6875 -118.34375 C 143.019531 -118.1875 144.503906 -118.035156 146.140625 -117.890625 C 147.773438 -117.742188 149.257812 -117.222656 150.59375 -116.328125 L 150.59375 -99.875 C 150.445312 -99.425781 150.375 -98.867188 150.375 -98.203125 C 150.375 -97.535156 150.222656 -96.976562 149.921875 -96.53125 C 149.773438 -96.382812 149.441406 -96.3125 148.921875 -96.3125 C 148.398438 -96.3125 148.066406 -96.3125 147.921875 -96.3125 C 144.660156 -97.050781 141.769531 -96.382812 139.25 -94.3125 C 136.726562 -92.238281 135.019531 -89.941406 134.125 -87.421875 C 131.757812 -81.484375 129.351562 -75.210938 126.90625 -68.609375 C 124.457031 -62.015625 121.972656 -55.679688 119.453125 -49.609375 C 117.523438 -44.566406 115.519531 -39.597656 113.4375 -34.703125 C 111.363281 -29.804688 109.289062 -24.835938 107.21875 -19.796875 C 106.175781 -17.273438 105.171875 -14.789062 104.203125 -12.34375 C 103.242188 -9.894531 102.320312 -7.335938 101.4375 -4.671875 C 100.6875 -3.035156 99.644531 -1.40625 98.3125 0.21875 C 95.945312 0.664062 93.503906 0.851562 90.984375 0.78125 C 88.460938 0.707031 85.9375 0.671875 83.40625 0.671875 C 80.738281 0.671875 78.070312 0.742188 75.40625 0.890625 C 72.738281 1.035156 70.144531 1.035156 67.625 0.890625 C 66.132812 0.742188 64.570312 0.707031 62.9375 0.78125 C 61.3125 0.851562 59.832031 0.445312 58.5 -0.4375 C 55.238281 -7.113281 51.9375 -13.640625 48.59375 -20.015625 C 45.257812 -26.390625 41.960938 -32.914062 38.703125 -39.59375 C 33.804688 -50.269531 28.984375 -60.945312 24.234375 -71.625 C 19.492188 -82.300781 14.378906 -92.832031 8.890625 -103.21875 L 5.78125 -109.65625 C 5.332031 -110.40625 4.957031 -111.367188 4.65625 -112.546875 C 4.363281 -113.734375 4.296875 -114.847656 4.453125 -115.890625 C 4.890625 -116.179688 6.960938 -116.398438 10.671875 -116.546875 C 14.378906 -116.703125 18.863281 -116.816406 24.125 -116.890625 C 29.394531 -116.960938 34.660156 -117.035156 39.921875 -117.109375 C 45.191406 -117.179688 49.71875 -117.179688 53.5 -117.109375 C 57.28125 -117.035156 59.46875 -116.925781 60.0625 -116.78125 C 66.132812 -104.914062 71.503906 -92.789062 76.171875 -80.40625 C 80.847656 -68.03125 86.375 -55.757812 92.75 -43.59375 L 98.984375 -58.28125 C 101.503906 -64.507812 104.0625 -70.695312 106.65625 -76.84375 C 109.25 -83 111.804688 -89.191406 114.328125 -95.421875 C 115.222656 -97.503906 116.222656 -99.804688 117.328125 -102.328125 C 118.441406 -104.847656 119.664062 -107.070312 121 -109 C 123.519531 -112.851562 126.5625 -115.445312 130.125 -116.78125 C 133.6875 -118.113281 137.539062 -118.632812 141.6875 -118.34375 Z M 17.578125 -107.4375 C 19.347656 -103.132812 21.160156 -99.09375 23.015625 -95.3125 C 24.867188 -91.53125 26.6875 -87.785156 28.46875 -84.078125 C 31.882812 -77.703125 35.070312 -71.101562 38.03125 -64.28125 C 41 -57.457031 44.039062 -50.710938 47.15625 -44.046875 C 49.820312 -38.554688 52.414062 -33.4375 54.9375 -28.6875 C 57.457031 -23.945312 59.976562 -18.832031 62.5 -13.34375 C 62.945312 -12.601562 63.429688 -11.820312 63.953125 -11 C 64.472656 -10.1875 65.101562 -9.5625 65.84375 -9.125 C 67.769531 -8.96875 69.660156 -8.925781 71.515625 -9 C 73.367188 -9.082031 75.257812 -9.125 77.1875 -9.125 C 78.070312 -8.96875 79.144531 -8.890625 80.40625 -8.890625 C 81.664062 -8.890625 82.375 -9.410156 82.53125 -10.453125 C 78.226562 -20.679688 73.441406 -31.320312 68.171875 -42.375 C 62.910156 -53.425781 57.679688 -64.472656 52.484375 -75.515625 C 47.296875 -86.566406 42.40625 -97.0625 37.8125 -107 C 34.25 -107.582031 30.910156 -107.910156 27.796875 -107.984375 C 24.691406 -108.066406 21.285156 -107.882812 17.578125 -107.4375 Z M 17.578125 -107.4375 "/></g></g></g></svg>